<svg version="1.1" id="Layer_1" xmlns="http://www.w3.org/2000/svg" xmlns:xlink="http://www.w3.org/1999/xlink" x="0px" y="0px"
	 width="100%"  viewBox="0 0 387 265" enable-background="new 0 0 387 265" xml:space="preserve">
 
<path fill="#1E2229" opacity="1.000000" stroke="none" 
	d="
M359.000000,266.000000 
	C239.333405,266.000000 120.166794,266.000000 1.000144,266.000000 
	C1.000096,177.666779 1.000096,89.333557 1.000048,1.000251 
	C129.999817,1.000167 258.999634,1.000167 387.999573,1.000083 
	C387.999725,89.333107 387.999725,177.666214 387.999878,265.999664 
	C378.500000,266.000000 369.000000,266.000000 359.000000,266.000000 
M166.866333,144.989487 
	C168.011368,144.291077 170.125473,143.626419 170.151154,142.889053 
	C170.401016,135.712997 170.301453,128.524796 170.301453,121.199097 
	C168.514481,121.199097 167.243118,121.199097 165.224380,121.556419 
	C165.224380,125.260162 165.224380,128.963898 165.224380,132.667648 
	C164.753403,132.770874 164.282425,132.874115 163.811447,132.977356 
	C162.461838,130.419449 161.134171,127.849655 159.756378,125.307007 
	C158.405518,122.814018 157.532349,119.433601 153.547302,121.470238 
	C153.547302,129.373718 153.547302,137.091736 153.547302,145.121307 
	C155.510849,144.957932 157.068604,144.828323 158.591827,144.701584 
	C158.752747,141.984406 158.884186,139.764908 159.008026,137.673737 
	C161.427826,140.150360 163.699753,142.475616 166.866333,144.989487 
M206.525040,141.933655 
	C209.116898,141.366684 211.708755,140.799713 214.243652,140.245209 
	C215.029587,142.012207 215.686066,143.488159 216.264114,144.787796 
	C218.265915,144.787796 219.891296,144.787796 221.764084,144.787796 
	C219.254486,137.429077 216.950150,130.317398 214.318268,123.329063 
	C213.913208,122.253532 211.993927,121.130615 210.788742,121.145531 
	C209.550903,121.160835 207.626251,122.279572 207.216064,123.371452 
	C204.596237,130.345383 202.311203,137.445068 199.916000,144.503387 
	C200.226974,144.913940 200.537949,145.324493 200.848923,145.735031 
	C202.625534,144.712570 204.402130,143.690094 206.525040,141.933655 
M271.810516,144.530396 
	C269.752594,138.258636 267.453644,132.052551 265.721100,125.692169 
	C264.557831,121.421608 262.406281,119.978104 258.078247,121.453102 
	C255.492294,129.073730 252.866501,136.811798 250.046341,145.122650 
	C252.372910,144.924316 255.251495,145.131119 255.396286,144.596893 
	C256.908386,139.018509 261.663818,142.054596 264.866547,140.341690 
	C265.476471,144.298309 267.554871,145.751678 271.810516,144.530396 
M250.972351,128.414688 
	C250.634186,122.009201 249.589951,121.003601 243.235962,120.987457 
	C240.260712,120.979904 237.285416,120.986160 234.073700,120.986160 
	C234.073700,129.046967 234.073700,136.802795 234.073700,144.717422 
	C235.660461,144.717422 237.204849,144.717422 239.218201,144.717422 
	C239.218201,138.368439 239.218201,132.299377 239.218201,126.252922 
	C241.469482,126.252922 243.240707,126.252922 244.964188,126.252922 
	C246.803619,131.937286 241.412109,128.876068 239.875549,130.887512 
	C239.985077,132.064072 240.115158,133.461151 240.240005,134.802292 
	C249.175018,135.307373 249.685379,135.032791 250.972351,128.414688 
M133.613892,140.437256 
	C133.711395,141.862213 133.808899,143.287170 133.911438,144.785782 
	C139.402252,144.785782 144.505875,144.785782 149.792419,144.785782 
	C149.792419,143.174088 149.792419,141.785980 149.792419,139.924240 
	C146.152481,139.924240 142.731674,139.924240 139.288315,139.924240 
	C139.288315,135.053162 139.288315,130.664520 139.288315,125.825745 
	C143.029724,125.825745 146.454071,125.825745 150.158890,125.825745 
	C149.968643,123.951530 149.827423,122.560364 149.696091,121.266678 
	C144.185120,121.266678 139.079468,121.266678 134.055481,121.266678 
	C133.876266,121.841331 133.700317,122.145569 133.698135,122.451050 
	C133.657623,128.115829 133.637802,133.780746 133.613892,140.437256 
M93.168213,136.297714 
	C93.186928,145.054291 93.627777,145.279877 104.757774,145.085541 
	C109.559593,145.001724 110.677872,142.559525 110.036842,137.721725 
	C106.343147,138.591339 102.874413,139.407990 98.748123,140.379440 
	C98.748123,133.468735 98.748123,127.411819 98.748123,121.248299 
	C96.699799,121.248299 95.136284,121.248299 93.168205,121.248299 
	C93.168205,126.126511 93.168205,130.736298 93.168213,136.297714 
M83.683563,125.176666 
	C83.649994,128.504013 83.824951,131.852356 83.492943,135.149658 
	C83.332275,136.745255 82.553810,139.171661 81.458412,139.566452 
	C79.896584,140.129364 77.735680,139.344116 75.924316,138.814468 
	C74.020782,138.257858 72.227638,137.323715 69.727318,136.279297 
	C71.157455,143.705490 73.365143,145.229782 80.666534,145.017700 
	C85.383453,144.880692 88.620499,142.386337 88.879280,138.106995 
	C89.157539,133.505432 88.942139,128.874008 88.942139,123.891159 
	C86.940910,124.083694 85.485374,124.223732 83.683563,125.176666 
M197.332977,143.360474 
	C197.728424,140.854279 196.893753,139.658951 194.133591,139.921005 
	C191.866486,140.136246 189.562683,139.964874 186.769699,139.964874 
	C186.769699,134.482010 186.769699,129.411987 186.769699,124.262360 
	C184.687881,124.262360 183.120941,124.262360 181.178864,124.262360 
	C181.178864,129.672501 180.894348,134.824097 181.335983,139.912674 
	C181.486832,141.650757 183.333160,144.517319 184.625168,144.645386 
	C188.770660,145.056335 193.019180,144.427902 197.332977,143.360474 
M229.804520,142.132202 
	C229.804520,135.197021 229.804520,128.261841 229.804520,121.232056 
	C227.697235,121.232056 226.126724,121.232056 224.418503,121.232056 
	C224.418503,129.240173 224.418503,136.966476 224.418503,146.054794 
	C226.710724,144.773178 228.249786,143.912674 229.804520,142.132202 
M292.515503,150.000839 
	C292.625854,148.023010 292.764191,146.046204 292.836945,144.067001 
	C292.887115,142.701920 292.846558,141.333496 292.846558,139.966583 
	C292.341797,139.998856 291.837067,140.031143 291.332306,140.063416 
	C291.656464,143.884338 291.885010,147.718155 292.397339,151.513672 
	C292.484375,152.158463 293.830658,153.139816 294.522797,153.083084 
	C295.696045,152.986908 297.354706,152.483047 297.826599,151.615829 
	C298.569916,150.249680 298.706146,148.444077 298.734955,146.818069 
	C298.833282,141.262863 298.772583,135.704849 298.772583,128.968765 
	C297.933319,130.630035 296.834717,131.820511 296.802826,133.038879 
	C296.668121,138.187698 296.876312,143.344666 296.907654,148.498962 
	C296.925079,151.363007 295.652832,152.107788 292.515503,150.000839 
M119.047966,132.419189 
	C119.047966,128.655685 119.047966,124.892174 119.047966,120.851250 
	C116.909286,121.049377 115.492859,121.180595 114.206070,121.299797 
	C114.206070,127.403641 114.206070,133.137451 114.206070,139.120926 
	C116.012527,138.949936 117.420311,138.816681 119.047958,138.662628 
	C119.047958,136.675720 119.047958,135.028564 119.047966,132.419189 
M302.577789,137.027130 
	C303.093323,135.914261 304.024170,134.812149 304.053345,133.686676 
	C304.186554,128.544357 303.986877,123.393517 304.114532,118.250885 
	C304.136444,117.368004 305.165344,116.510101 305.729065,115.640663 
	C306.464081,116.521568 307.791107,117.386909 307.814789,118.286507 
	C307.869232,120.358368 307.116302,122.441368 307.050079,124.531219 
	C307.021881,125.421677 307.891663,126.340591 308.353363,127.246590 
	C309.103027,126.547874 310.531860,125.800529 310.485901,125.158783 
	C310.276611,122.236183 309.890350,119.272491 309.057434,116.475548 
	C308.737030,115.399597 306.910919,113.908211 306.037323,114.067513 
	C304.791992,114.294609 302.912781,115.800201 302.830719,116.876099 
	C302.320251,123.568916 302.235962,130.294235 302.577789,137.027130 
M126.315964,145.005661 
	C127.767281,144.928085 129.218597,144.850510 130.655411,144.773727 
	C130.655411,143.065613 130.655411,141.690414 130.655411,140.266998 
	C124.945923,140.266998 119.541527,140.266998 113.865547,140.266998 
	C113.946777,141.940262 114.014061,143.326294 114.095589,145.005692 
	C118.106995,145.005692 121.734283,145.005692 126.315964,145.005661 
M188.728516,117.981674 
	C182.688843,118.064018 182.424240,118.247482 181.844528,122.695099 
	C187.056366,122.695099 192.268967,122.695099 197.802109,122.695099 
	C197.654068,120.965569 197.536285,119.589363 197.398666,117.981644 
	C194.563965,117.981644 192.100754,117.981644 188.728516,117.981674 
M106.640320,121.009460 
	C106.074333,121.645958 105.038284,122.267815 105.017921,122.921326 
	C104.875282,127.499619 104.942375,132.084442 104.942375,137.014099 
	C107.067589,136.918701 108.607208,136.849594 110.307480,136.773285 
	C110.307480,132.142929 110.483353,127.995689 110.183105,123.883202 
	C110.108574,122.862427 108.492546,121.954208 106.640320,121.009460 
M83.375031,123.005707 
	C85.142311,123.005707 86.909592,123.005707 88.960007,123.005707 
	C88.868034,121.054314 88.803078,119.676102 88.737183,118.278000 
	C83.305550,118.278000 78.262924,118.278000 72.939034,118.278000 
	C73.035355,119.960060 73.114250,121.337723 73.209763,123.005707 
	C76.526566,123.005707 79.474953,123.005707 83.375031,123.005707 
M147.136505,130.649521 
	C144.967056,130.379791 142.797607,130.110077 140.463440,129.819885 
	C140.463440,131.881577 140.463440,133.349625 140.463440,134.788040 
	C146.797409,135.179443 146.797409,135.179443 147.136505,130.649521 
z"/>
<path fill="#B0D6EE" opacity="1.000000" stroke="none" 
	d="
M206.351898,142.300629 
	C204.402130,143.690094 202.625534,144.712570 200.848923,145.735031 
	C200.537949,145.324493 200.226974,144.913940 199.916000,144.503387 
	C202.311203,137.445068 204.596237,130.345383 207.216064,123.371452 
	C207.626251,122.279572 209.550903,121.160835 210.788742,121.145531 
	C211.993927,121.130615 213.913208,122.253532 214.318268,123.329063 
	C216.950150,130.317398 219.254486,137.429077 221.764084,144.787796 
	C219.891296,144.787796 218.265915,144.787796 216.264114,144.787796 
	C215.686066,143.488159 215.029587,142.012207 214.243652,140.245209 
	C211.708755,140.799713 209.116898,141.366684 206.351898,142.300629 
z"/>
<path fill="#B0D6EE" opacity="1.000000" stroke="none" 
	d="
M271.457275,144.730164 
	C267.554871,145.751678 265.476471,144.298309 264.866547,140.341690 
	C261.663818,142.054596 256.908386,139.018509 255.396286,144.596893 
	C255.251495,145.131119 252.372910,144.924316 250.046341,145.122650 
	C252.866501,136.811798 255.492294,129.073730 258.078247,121.453102 
	C262.406281,119.978104 264.557831,121.421608 265.721100,125.692169 
	C267.453644,132.052551 269.752594,138.258636 271.457275,144.730164 
z"/>
<path fill="#B6DBF1" opacity="1.000000" stroke="none" 
	d="
M250.968231,128.834045 
	C249.685379,135.032791 249.175018,135.307373 240.240005,134.802292 
	C240.115158,133.461151 239.985077,132.064072 239.875549,130.887512 
	C241.412109,128.876068 246.803619,131.937286 244.964188,126.252922 
	C243.240707,126.252922 241.469482,126.252922 239.218201,126.252922 
	C239.218201,132.299377 239.218201,138.368439 239.218201,144.717422 
	C237.204849,144.717422 235.660461,144.717422 234.073700,144.717422 
	C234.073700,136.802795 234.073700,129.046967 234.073700,120.986160 
	C237.285416,120.986160 240.260712,120.979904 243.235962,120.987457 
	C249.589951,121.003601 250.634186,122.009201 250.968231,128.834045 
z"/>
<path fill="#ACD1EB" opacity="1.000000" stroke="none" 
	d="
M165.971680,144.800888 
	C163.699753,142.475616 161.427826,140.150360 159.008026,137.673737 
	C158.884186,139.764908 158.752747,141.984406 158.591827,144.701584 
	C157.068604,144.828323 155.510849,144.957932 153.547302,145.121307 
	C153.547302,137.091736 153.547302,129.373718 153.547302,121.470238 
	C157.532349,119.433601 158.405518,122.814018 159.756378,125.307007 
	C161.134171,127.849655 162.461838,130.419449 163.811447,132.977356 
	C164.282425,132.874115 164.753403,132.770874 165.224380,132.667648 
	C165.224380,128.963898 165.224380,125.260162 165.606018,121.833389 
	C165.982346,129.673874 165.977005,137.237381 165.971680,144.800888 
z"/>
<path fill="#BADDF3" opacity="1.000000" stroke="none" 
	d="
M133.613770,139.941452 
	C133.637802,133.780746 133.657623,128.115829 133.698135,122.451050 
	C133.700317,122.145569 133.876266,121.841331 134.055481,121.266678 
	C139.079468,121.266678 144.185120,121.266678 149.696091,121.266678 
	C149.827423,122.560364 149.968643,123.951530 150.158890,125.825745 
	C146.454071,125.825745 143.029724,125.825745 139.288315,125.825745 
	C139.288315,130.664520 139.288315,135.053162 139.288315,139.924240 
	C142.731674,139.924240 146.152481,139.924240 149.792419,139.924240 
	C149.792419,141.785980 149.792419,143.174088 149.792419,144.785782 
	C144.505875,144.785782 139.402252,144.785782 133.911438,144.785782 
	C133.808899,143.287170 133.711395,141.862213 133.613770,139.941452 
z"/>
<path fill="#ACD1EB" opacity="1.000000" stroke="none" 
	d="
M93.168213,135.821899 
	C93.168205,130.736298 93.168205,126.126511 93.168205,121.248299 
	C95.136284,121.248299 96.699799,121.248299 98.748123,121.248299 
	C98.748123,127.411819 98.748123,133.468735 98.748123,140.379440 
	C102.874413,139.407990 106.343147,138.591339 110.036842,137.721725 
	C110.677872,142.559525 109.559593,145.001724 104.757774,145.085541 
	C93.627777,145.279877 93.186928,145.054291 93.168213,135.821899 
z"/>
<path fill="#B5D8EF" opacity="1.000000" stroke="none" 
	d="
M83.856705,124.770218 
	C85.485374,124.223732 86.940910,124.083694 88.942139,123.891159 
	C88.942139,128.874008 89.157539,133.505432 88.879280,138.106995 
	C88.620499,142.386337 85.383453,144.880692 80.666534,145.017700 
	C73.365143,145.229782 71.157455,143.705490 69.727318,136.279297 
	C72.227638,137.323715 74.020782,138.257858 75.924316,138.814468 
	C77.735680,139.344116 79.896584,140.129364 81.458412,139.566452 
	C82.553810,139.171661 83.332275,136.745255 83.492943,135.149658 
	C83.824951,131.852356 83.649994,128.504013 83.856705,124.770218 
z"/>
<path fill="#ACD1EB" opacity="1.000000" stroke="none" 
	d="
M197.280457,143.780472 
	C193.019180,144.427902 188.770660,145.056335 184.625168,144.645386 
	C183.333160,144.517319 181.486832,141.650757 181.335983,139.912674 
	C180.894348,134.824097 181.178864,129.672501 181.178864,124.262360 
	C183.120941,124.262360 184.687881,124.262360 186.769699,124.262360 
	C186.769699,129.411987 186.769699,134.482010 186.769699,139.964874 
	C189.562683,139.964874 191.866486,140.136246 194.133591,139.921005 
	C196.893753,139.658951 197.728424,140.854279 197.280457,143.780472 
z"/>
<path fill="#A6CBE3" opacity="1.000000" stroke="none" 
	d="
M229.796677,142.592194 
	C228.249786,143.912674 226.710724,144.773178 224.418503,146.054794 
	C224.418503,136.966476 224.418503,129.240173 224.418503,121.232056 
	C226.126724,121.232056 227.697235,121.232056 229.804520,121.232056 
	C229.804520,128.261841 229.804520,135.197021 229.796677,142.592194 
z"/>
<path fill="#91ABBF" opacity="1.000000" stroke="none" 
	d="
M292.840332,150.301544 
	C295.652832,152.107788 296.925079,151.363007 296.907654,148.498962 
	C296.876312,143.344666 296.668121,138.187698 296.802826,133.038879 
	C296.834717,131.820511 297.933319,130.630035 298.772583,128.968765 
	C298.772583,135.704849 298.833282,141.262863 298.734955,146.818069 
	C298.706146,148.444077 298.569916,150.249680 297.826599,151.615829 
	C297.354706,152.483047 295.696045,152.986908 294.522797,153.083084 
	C293.830658,153.139816 292.484375,152.158463 292.397339,151.513672 
	C291.885010,147.718155 291.656464,143.884338 291.332306,140.063416 
	C291.837067,140.031143 292.341797,139.998856 292.846558,139.966583 
	C292.846558,141.333496 292.887115,142.701920 292.836945,144.067001 
	C292.764191,146.046204 292.625854,148.023010 292.840332,150.301544 
z"/>
<path fill="#ACD7F8" opacity="1.000000" stroke="none" 
	d="
M166.419006,144.895187 
	C165.977005,137.237381 165.982346,129.673874 165.979721,121.654724 
	C167.243118,121.199097 168.514481,121.199097 170.301453,121.199097 
	C170.301453,128.524796 170.401016,135.712997 170.151154,142.889053 
	C170.125473,143.626419 168.011368,144.291077 166.419006,144.895187 
z"/>
<path fill="#B6DBF1" opacity="1.000000" stroke="none" 
	d="
M119.047958,132.900299 
	C119.047958,135.028564 119.047958,136.675720 119.047958,138.662628 
	C117.420311,138.816681 116.012527,138.949936 114.206070,139.120926 
	C114.206070,133.137451 114.206070,127.403641 114.206070,121.299797 
	C115.492859,121.180595 116.909286,121.049377 119.047966,120.851250 
	C119.047966,124.892174 119.047966,128.655685 119.047958,132.900299 
z"/>
<path fill="#A6CBE3" opacity="1.000000" stroke="none" 
	d="
M302.294067,137.017960 
	C302.235962,130.294235 302.320251,123.568916 302.830719,116.876099 
	C302.912781,115.800201 304.791992,114.294609 306.037323,114.067513 
	C306.910919,113.908211 308.737030,115.399597 309.057434,116.475548 
	C309.890350,119.272491 310.276611,122.236183 310.485901,125.158783 
	C310.531860,125.800529 309.103027,126.547874 308.353363,127.246582 
	C307.891663,126.340591 307.021881,125.421677 307.050079,124.531219 
	C307.116302,122.441368 307.869232,120.358368 307.814789,118.286507 
	C307.791107,117.386909 306.464081,116.521568 305.729065,115.640663 
	C305.165344,116.510101 304.136444,117.368004 304.114532,118.250885 
	C303.986877,123.393517 304.186554,128.544357 304.053345,133.686676 
	C304.024170,134.812149 303.093323,135.914261 302.294067,137.017960 
z"/>
<path fill="#BADDF3" opacity="1.000000" stroke="none" 
	d="
M125.838760,145.005676 
	C121.734283,145.005692 118.106995,145.005692 114.095589,145.005692 
	C114.014061,143.326294 113.946777,141.940262 113.865547,140.266998 
	C119.541527,140.266998 124.945923,140.266998 130.655411,140.266998 
	C130.655411,141.690414 130.655411,143.065613 130.655411,144.773727 
	C129.218597,144.850510 127.767281,144.928085 125.838760,145.005676 
z"/>
<path fill="#B5D8EF" opacity="1.000000" stroke="none" 
	d="
M189.183044,117.981659 
	C192.100754,117.981644 194.563965,117.981644 197.398666,117.981644 
	C197.536285,119.589363 197.654068,120.965569 197.802109,122.695099 
	C192.268967,122.695099 187.056366,122.695099 181.844528,122.695099 
	C182.424240,118.247482 182.688843,118.064018 189.183044,117.981659 
z"/>
<path fill="#B1DBF8" opacity="1.000000" stroke="none" 
	d="
M107.112701,121.001862 
	C108.492546,121.954208 110.108574,122.862427 110.183105,123.883202 
	C110.483353,127.995689 110.307480,132.142929 110.307480,136.773285 
	C108.607208,136.849594 107.067589,136.918701 104.942375,137.014099 
	C104.942375,132.084442 104.875282,127.499619 105.017921,122.921326 
	C105.038284,122.267815 106.074333,121.645958 107.112701,121.001862 
z"/>
<path fill="#BADDF3" opacity="1.000000" stroke="none" 
	d="
M82.899185,123.005707 
	C79.474953,123.005707 76.526566,123.005707 73.209763,123.005707 
	C73.114250,121.337723 73.035355,119.960060 72.939034,118.278000 
	C78.262924,118.278000 83.305550,118.278000 88.737183,118.278000 
	C88.803078,119.676102 88.868034,121.054314 88.960007,123.005707 
	C86.909592,123.005707 85.142311,123.005707 82.899185,123.005707 
z"/>
<path fill="#B1DBF8" opacity="1.000000" stroke="none" 
	d="
M147.208023,131.109711 
	C146.797409,135.179443 146.797409,135.179443 140.463440,134.788040 
	C140.463440,133.349625 140.463440,131.881577 140.463440,129.819885 
	C142.797607,130.110077 144.967056,130.379791 147.208023,131.109711 
z"/>
</svg>